<?xml version="1.0" standalone="no"?><!DOCTYPE svg PUBLIC "-//W3C//DTD SVG 1.1//EN" "http://www.w3.org/Graphics/SVG/1.1/DTD/svg11.dtd"><svg t="1509352720782" class="icon" style="" viewBox="0 0 1024 1024" version="1.1" xmlns="http://www.w3.org/2000/svg" p-id="3505" xmlns:xlink="http://www.w3.org/1999/xlink" width="200" height="200"><defs><style type="text/css"></style></defs><path d="M204.8 556.8V608c0 6.4 0 6.4-6.4 6.4h-51.2c-6.4 0-6.4 0-6.4-6.4v-51.2c0-6.4 0-6.4 6.4-6.4h51.2c6.4-6.4 6.4 0 6.4 6.4z m70.4-147.2v51.2c0 6.4 0 6.4-6.4 6.4H147.2c-6.4 0-6.4 0-6.4-6.4v-51.2c0-6.4 0-6.4 6.4-6.4h121.6s6.4 0 6.4 6.4z m-70.4-147.2V320c0 6.4 0 6.4-6.4 6.4h-51.2c-6.4 0-6.4 0-6.4-6.4v-57.6c-6.4-6.4 0-6.4 6.4-6.4h51.2c6.4 0 6.4 0 6.4 6.4z m544 294.4V608c0 6.4 0 6.4-6.4 6.4H281.6c-6.4 0-6.4 0-6.4-6.4v-51.2c0-6.4 0-6.4 6.4-6.4h460.8c6.4-6.4 6.4 0 6.4 6.4zM409.6 409.6v51.2c0 6.4 0 6.4-6.4 6.4H352c-6.4 0-6.4 0-6.4-6.4v-51.2c0-6.4 0-6.4 6.4-6.4h51.2c6.4 0 6.4 0 6.4 6.4z m-70.4-147.2V320c0 6.4 0 6.4-6.4 6.4h-51.2c-6.4 0-6.4 0-6.4-6.4v-57.6c0-6.4 0-6.4 6.4-6.4h51.2c6.4 0 6.4 0 6.4 6.4zM544 409.6v51.2c0 6.4 0 6.4-6.4 6.4h-51.2c-6.4 0-6.4 0-6.4-6.4v-51.2c0-6.4 0-6.4 6.4-6.4h51.2c6.4 0 6.4 0 6.4 6.4z m-64-147.2V320c0 6.4 0 6.4-6.4 6.4H416c-6.4 0-6.4 0-6.4-6.4v-57.6c0-6.4 6.4-6.4 6.4-6.4h51.2c6.4 0 12.8 0 12.8 6.4z m204.8 147.2v51.2c0 6.4 0 6.4-6.4 6.4h-57.6c-6.4 0-6.4 0-6.4-6.4v-51.2c0-6.4 0-6.4 6.4-6.4H672c6.4 0 12.8 0 12.8 6.4z m204.8 147.2V608c0 6.4 0 6.4-6.4 6.4H832c-6.4 0-6.4 0-6.4-6.4v-51.2c0-6.4 0-6.4 6.4-6.4h51.2c0-6.4 6.4 0 6.4 6.4zM614.4 262.4V320c0 6.4 0 6.4-6.4 6.4h-51.2c-6.4 0-6.4 0-6.4-6.4v-57.6c-6.4-6.4 0-6.4 6.4-6.4H608c6.4 0 6.4 0 6.4 6.4z m134.4 0V320c0 6.4 0 6.4-6.4 6.4h-51.2c-6.4 0-6.4 0-6.4-6.4v-57.6c0-6.4 0-6.4 6.4-6.4h51.2c6.4 0 6.4 0 6.4 6.4z m140.8 0v198.4c0 6.4 0 6.4-6.4 6.4H761.6c-6.4 0-6.4 0-6.4-6.4v-51.2c0-6.4 0-6.4 6.4-6.4h57.6V262.4c0-6.4 0-6.4 6.4-6.4h51.2c6.4 0 12.8 0 12.8 6.4z m64 428.8V185.6H70.4v505.6h883.2z m70.4-505.6v505.6c0 19.2-6.4 38.4-19.2 51.2s-32 19.2-44.8 19.2H70.4c-19.2 0-32-6.4-44.8-19.2C6.4 729.6 0 710.4 0 691.2V185.6c0-19.2 6.4-38.4 19.2-51.2s32-19.2 44.8-19.2h889.6c19.2 0 32 6.4 44.8 19.2 19.2 12.8 25.6 25.6 25.6 51.2zM409.6 800l96 115.2 96-115.2h-192z" p-id="3506"></path></svg>