<?xml version="1.0" standalone="no"?><!DOCTYPE svg PUBLIC "-//W3C//DTD SVG 1.1//EN" "http://www.w3.org/Graphics/SVG/1.1/DTD/svg11.dtd"><svg t="1509352735979" class="icon" style="" viewBox="0 0 1024 1024" version="1.1" xmlns="http://www.w3.org/2000/svg" p-id="3756" xmlns:xlink="http://www.w3.org/1999/xlink" width="200" height="200"><defs><style type="text/css"></style></defs><path d="M866.461538 551.384615v393.846154H157.538462V551.384615h708.923076m0-78.76923H157.538462a78.769231 78.769231 0 0 0-78.769231 78.76923v393.846154a78.769231 78.769231 0 0 0 78.769231 78.769231h708.923076a78.769231 78.769231 0 0 0 78.769231-78.769231V551.384615a78.769231 78.769231 0 0 0-78.769231-78.76923z" p-id="3757"></path><path d="M512 748.307692a39.384615 39.384615 0 0 0-39.384615 39.384616v196.923077a39.384615 39.384615 0 0 0 78.76923 0V787.692308a39.384615 39.384615 0 0 0-39.384615-39.384616zM354.461538 748.307692a39.384615 39.384615 0 0 0-39.384615 39.384616v196.923077a39.384615 39.384615 0 0 0 78.769231 0V787.692308a39.384615 39.384615 0 0 0-39.384616-39.384616zM669.538462 748.307692a39.384615 39.384615 0 0 0-39.384616 39.384616v196.923077a39.384615 39.384615 0 0 0 78.769231 0V787.692308a39.384615 39.384615 0 0 0-39.384615-39.384616zM911.911385 551.384615H112.088615C50.254769 551.384615 0 498.372923 0 433.230769S50.254769 315.076923 112.088615 315.076923H393.846154a39.384615 39.384615 0 0 1 0 78.769231H112.088615C93.656615 393.846154 78.769231 411.490462 78.769231 433.230769s14.887385 39.384615 33.319384 39.384616h799.82277c18.432 0 33.319385-17.644308 33.319384-39.384616s-14.887385-39.384615-33.319384-39.384615H630.153846a39.384615 39.384615 0 0 1 0-78.769231h281.757539C973.666462 315.076923 1024 368.088615 1024 433.230769S973.666462 551.384615 911.911385 551.384615z" p-id="3758"></path><path d="M669.538462 359.424h-78.769231V118.153846A39.384615 39.384615 0 0 0 551.384615 78.769231H472.615385a39.384615 39.384615 0 0 0-39.384616 39.384615v236.307692h-78.769231v-236.307692C354.461538 53.011692 407.473231 0 472.615385 0h78.76923c65.142154 0 118.153846 53.011692 118.153847 118.153846v241.270154z" p-id="3759"></path></svg>