<?xml version="1.0" standalone="no"?><!DOCTYPE svg PUBLIC "-//W3C//DTD SVG 1.1//EN" "http://www.w3.org/Graphics/SVG/1.1/DTD/svg11.dtd"><svg t="1509352727087" class="icon" style="" viewBox="0 0 1064 1024" version="1.1" xmlns="http://www.w3.org/2000/svg" p-id="3628" xmlns:xlink="http://www.w3.org/1999/xlink" width="207.8125" height="200"><defs><style type="text/css"></style></defs><path d="M0 40.96v663.67488a40.96 40.96 0 0 0 40.96 40.96h983.04a40.96 40.96 0 0 0 40.96-40.96V40.96a40.96 40.96 0 0 0-40.96-40.96H40.96a40.96 40.96 0 0 0-40.96 40.96z m478.94528 118.784h106.53696v106.53696h-106.53696v-106.496z m0 159.78496h106.53696v106.496h-106.53696v-106.496z m-159.82592-159.744h106.53696v106.496H319.11936v-106.496z m0 159.744h106.53696v106.496H319.11936v-106.496z m-53.248 106.496H159.25248v-106.496H265.8304v106.496z m0-159.744H159.25248v-106.496H265.8304v106.496z m479.4368 372.81792H319.11936v-106.496h426.1888v106.496z m0-213.03296h-106.53696v-106.496h106.53696v106.496z m0-159.744h-106.53696V159.744h106.53696v106.496z m159.82592 159.744h-106.53696v-106.496h106.53696v106.496z m0-159.744h-106.53696V159.744h106.53696v106.496z m-179.6096 544.80896h-386.6624a8.192 8.192 0 0 0-5.7344 14.00832l170.10688 170.06592a40.96 40.96 0 0 0 57.91744 0l170.1888-170.06592a8.192 8.192 0 0 0-5.81632-14.00832z" p-id="3629"></path></svg>